<?xml version="1.0" encoding="UTF-8" standalone="no"?>
<svg
   version="1.1"
   width="10.378440cm"
   height="6.896100cm"
   viewBox="0 0 40860 27150"
   id="svg642"
   sodipodi:docname="HVC-TGROM-01-board.svg"
   inkscape:version="1.1.1 (3bf5ae0d25, 2021-09-20)"
   inkscape:export-filename="C:\Github\Gumball2415\NES FC cartridge dimensions\nes-fc-cartridge-dimensions\HVC-TGROM-01\HVC-TGROM-01-board.png"
   inkscape:export-xdpi="600"
   inkscape:export-ydpi="600"
   xmlns:inkscape="http://www.inkscape.org/namespaces/inkscape"
   xmlns:sodipodi="http://sodipodi.sourceforge.net/DTD/sodipodi-0.dtd"
   xmlns="http://www.w3.org/2000/svg"
   xmlns:svg="http://www.w3.org/2000/svg">
  <defs
     id="defs646" />
  <sodipodi:namedview
     id="namedview644"
     pagecolor="#ffffff"
     bordercolor="#666666"
     borderopacity="1.0"
     inkscape:pageshadow="2"
     inkscape:pageopacity="0.0"
     inkscape:pagecheckerboard="0"
     inkscape:document-units="cm"
     showgrid="false"
     inkscape:zoom="1"
     inkscape:cx="148.5"
     inkscape:cy="131.5"
     inkscape:window-width="1366"
     inkscape:window-height="745"
     inkscape:window-x="-8"
     inkscape:window-y="-8"
     inkscape:window-maximized="1"
     inkscape:current-layer="layer1" />
  <title
     id="title2">SVG Picture created as HVC-TGROM-01-brd.svg date 2021/11/09 21:40:02 </title>
  <desc
     id="desc4">Picture generated by PCBNEW </desc>
  <g
     inkscape:groupmode="layer"
     id="layer2"
     inkscape:label="Dwgs.User"
     style="display:inline">
    <g
       style="fill:#c2c2c2;fill-opacity:0;stroke:#c2c2c2;stroke-width:59.0551;stroke-linecap:round;stroke-linejoin:round;stroke-opacity:1"
       id="g576">
      <g
         transform="rotate(90,1857.42,9150.47)"
         id="g106">
        <text
           x="1857.42"
           y="9347.3203"
           textLength="3655.79"
           font-size="524.934px"
           lengthAdjust="spacingAndGlyphs"
           text-anchor="middle"
           opacity="0"
           id="text104">1.828125 in</text>
      </g>
      <path
         d="M 1679,7622 V 7397"
         id="path108" />
      <path
         d="m 1679,7510 h 394 l -57,-38 -37,-37 -19,-38"
         id="path110" />
      <path
         d="m 1716,7791 -18,19 -19,-19 19,-19 18,19 h -37"
         id="path112" />
      <path
         d="m 1904,8034 19,-37 18,-19 38,-19 h 19 l 37,19 19,19 19,37 v 75 l -19,38 -19,19 -37,18 h -19 l -38,-18 -18,-19 -19,-38 v -75 l -19,-37 -19,-19 -37,-19 h -75 l -38,19 -18,19 -19,37 v 75 l 19,38 18,19 38,18 h 75 l 37,-18 19,-19 19,-38"
         id="path114" />
      <path
         d="m 2035,8334 19,19 19,38 v 93 l -19,38 -19,19 -37,18 h -38 l -56,-18 -225,-225 v 243"
         id="path116" />
      <path
         d="m 1904,8784 19,-37 18,-19 38,-19 h 19 l 37,19 19,19 19,37 v 75 l -19,38 -19,19 -37,18 h -19 l -38,-18 -18,-19 -19,-38 v -75 l -19,-37 -19,-19 -37,-19 h -75 l -38,19 -18,19 -19,37 v 75 l 19,38 18,19 38,18 h 75 l 37,-18 19,-19 19,-38"
         id="path118" />
      <path
         d="M 1679,9309 V 9084"
         id="path120" />
      <path
         d="m 1679,9197 h 394 l -57,-38 -37,-37 -19,-38"
         id="path122" />
      <path
         d="m 2035,9459 19,19 19,38 v 93 l -19,38 -19,19 -37,18 h -38 l -56,-18 -225,-225 v 243"
         id="path124" />
      <path
         d="m 2073,10040 v -187 l -188,-19 19,19 19,38 v 93 l -19,38 -19,18 -37,19 h -94 l -38,-19 -18,-18 -19,-38 v -93 l 19,-38 18,-19"
         id="path126" />
      <path
         d="m 1679,10528 h 262"
         id="path128" />
      <path
         d="m 2073,10528 -19,-19 -19,19 19,19 19,-19 h -38"
         id="path130" />
      <path
         d="M 1941,10715 H 1679"
         id="path132" />
      <path
         d="m 1904,10715 19,19 18,38 v 56 l -18,37 -38,19 h -206"
         id="path134" />
      <path
         d="M 2369,9 V 18291"
         id="path136" />
      <path
         d="M 5384,9 H 2138"
         id="path138" />
      <path
         d="M 5384,18291 H 2138"
         id="path140" />
      <path
         d="m 2369,18291 -231,-444"
         id="path142" />
      <path
         d="m 2369,18291 231,-444"
         id="path144" />
      <path
         d="M 2369,9 2138,453"
         id="path146" />
      <path
         d="m 2369,9 231,444"
         id="path148" />
      <g
         transform="rotate(90,3357.42,13720.8)"
         id="g152">
        <text
           x="3357.4199"
           y="13917.6"
           textLength="4107.52"
           font-size="524.934px"
           lengthAdjust="spacingAndGlyphs"
           text-anchor="middle"
           opacity="0"
           id="text150">0.9140625 in</text>
      </g>
      <path
         d="m 3573,11874 v 37 l -19,38 -19,18 -37,19 -75,19 h -94 l -75,-19 -38,-19 -18,-18 -19,-38 v -37 l 19,-38 18,-19 38,-18 75,-19 h 94 l 75,19 37,18 19,19 19,38"
         id="path154" />
      <path
         d="m 3216,12174 -18,18 -19,-18 19,-19 18,19 h -37"
         id="path156" />
      <path
         d="m 3179,12380 v 75 l 19,37 18,19 57,38 75,18 h 150 l 37,-18 19,-19 19,-38 v -75 l -19,-37 -19,-19 -37,-19 h -94 l -38,19 -18,19 -19,37 v 75 l 19,38 18,19 38,18"
         id="path158" />
      <path
         d="m 3179,12942 v -225"
         id="path160" />
      <path
         d="m 3179,12830 h 394 l -57,-38 -37,-37 -19,-38"
         id="path162" />
      <path
         d="M 3441,13280 H 3179"
         id="path164" />
      <path
         d="m 3591,13186 -281,-94 v 244"
         id="path166" />
      <path
         d="m 3573,13561 v 37 l -19,38 -19,19 -37,18 -75,19 h -94 l -75,-19 -38,-18 -18,-19 -19,-38 v -37 l 19,-38 18,-18 38,-19 75,-19 h 94 l 75,19 37,19 19,18 19,38"
         id="path168" />
      <path
         d="m 3573,14030 v -75 l -19,-38 -19,-19 -56,-37 -75,-19 h -150 l -38,19 -18,19 -19,37 v 75 l 19,38 18,18 38,19 h 94 l 37,-19 19,-18 19,-38 v -75 l -19,-37 -19,-19 -37,-19"
         id="path170" />
      <path
         d="m 3535,14217 19,19 19,37 v 94 l -19,38 -19,18 -37,19 h -38 l -56,-19 -225,-225 v 244"
         id="path172" />
      <path
         d="m 3573,14798 v -187 l -188,-19 19,19 19,37 v 94 l -19,38 -19,18 -37,19 h -94 l -38,-19 -18,-18 -19,-38 v -94 l 19,-37 18,-19"
         id="path174" />
      <path
         d="m 3179,15286 h 262"
         id="path176" />
      <path
         d="m 3573,15286 -19,-19 -19,19 19,18 19,-18 h -38"
         id="path178" />
      <path
         d="M 3441,15473 H 3179"
         id="path180" />
      <path
         d="m 3404,15473 19,19 18,37 v 57 l -18,37 -38,19 h -206"
         id="path182" />
      <path
         d="m 3869,9150 v 9141"
         id="path184" />
      <path
         d="M 5384,9150 H 3638"
         id="path186" />
      <path
         d="M 5384,18291 H 3638"
         id="path188" />
      <path
         d="m 3869,18291 -231,-444"
         id="path190" />
      <path
         d="m 3869,18291 231,-444"
         id="path192" />
      <path
         d="m 3869,9150 -231,443"
         id="path194" />
      <path
         d="m 3869,9150 231,443"
         id="path196" />
      <text
         x="23119.199"
         y="26999.801"
         textLength="3732.5601"
         font-size="524.934px"
         lengthAdjust="spacingAndGlyphs"
         text-anchor="middle"
         opacity="0"
         id="text198">3.546875 in</text>
      <path
         d="m 21347,26587 h 244 l -131,150 h 56 l 37,19 19,18 19,38 v 94 l -19,37 -19,19 -37,19 h -113 l -37,-19 -19,-19"
         id="path200" />
      <path
         d="m 21760,26943 18,19 -18,19 -19,-19 19,-19 v 38"
         id="path202" />
      <path
         d="m 22134,26587 h -187 l -19,187 19,-18 38,-19 h 93 l 38,19 18,18 19,38 v 94 l -19,37 -18,19 -38,19 h -93 l -38,-19 -19,-19"
         id="path204" />
      <path
         d="m 22491,26718 v 263"
         id="path206" />
      <path
         d="m 22397,26568 -94,281 h 244"
         id="path208" />
      <path
         d="m 22866,26587 h -75 l -38,19 -19,18 -37,57 -19,75 v 150 l 19,37 19,19 37,19 h 75 l 38,-19 18,-19 19,-37 v -94 l -19,-38 -18,-18 -38,-19 h -75 l -37,19 -19,18 -19,38"
         id="path210" />
      <path
         d="m 23128,26756 -37,-19 -19,-19 -19,-37 v -19 l 19,-38 19,-18 37,-19 h 75 l 38,19 18,18 19,38 v 19 l -19,37 -18,19 -38,19 h -75 l -37,18 -19,19 -19,38 v 75 l 19,37 19,19 37,19 h 75 l 38,-19 18,-19 19,-37 v -75 l -19,-38 -18,-19 -38,-18"
         id="path212" />
      <path
         d="m 23409,26587 h 263 l -169,394"
         id="path214" />
      <path
         d="m 24009,26587 h -187 l -19,187 19,-18 37,-19 h 94 l 38,19 18,18 19,38 v 94 l -19,37 -18,19 -38,19 h -94 l -37,-19 -19,-19"
         id="path216" />
      <path
         d="m 24497,26981 v -263"
         id="path218" />
      <path
         d="m 24497,26587 -19,19 19,18 18,-18 -18,-19 v 37"
         id="path220" />
      <path
         d="m 24684,26718 v 263"
         id="path222" />
      <path
         d="m 24684,26756 19,-19 37,-19 h 57 l 37,19 19,37 v 207"
         id="path224" />
      <path
         d="M 5384,26291 H 40853"
         id="path226" />
      <path
         d="m 5384,18291 v 8230"
         id="path228" />
      <path
         d="m 40853,18291 v 8230"
         id="path230" />
      <path
         d="m 40853,26291 -443,230"
         id="path232" />
      <path
         d="m 40853,26291 -443,-231"
         id="path234" />
      <path
         d="m 5384,26291 444,230"
         id="path236" />
      <path
         d="m 5384,26291 444,-231"
         id="path238" />
      <g
         transform="rotate(90,3357.42,4150.47)"
         id="g242">
        <text
           x="3357.4199"
           y="4347.3198"
           textLength="3732.5601"
           font-size="524.934px"
           lengthAdjust="spacingAndGlyphs"
           text-anchor="middle"
           opacity="0"
           id="text240">0.828125 in</text>
      </g>
      <path
         d="m 3573,2491 v 37 l -19,38 -19,19 -37,18 -75,19 h -94 l -75,-19 -38,-18 -18,-19 -19,-38 v -37 l 19,-38 18,-18 38,-19 75,-19 h 94 l 75,19 37,19 19,18 19,38"
         id="path244" />
      <path
         d="m 3216,2791 -18,19 -19,-19 19,-19 18,19 h -37"
         id="path246" />
      <path
         d="m 3404,3034 19,-37 18,-19 38,-19 h 19 l 37,19 19,19 19,37 v 75 l -19,38 -19,19 -37,18 h -19 l -38,-18 -18,-19 -19,-38 v -75 l -19,-37 -19,-19 -37,-19 h -75 l -38,19 -18,19 -19,37 v 75 l 19,38 18,19 38,18 h 75 l 37,-18 19,-19 19,-38"
         id="path248" />
      <path
         d="m 3535,3334 19,19 19,38 v 93 l -19,38 -19,19 -37,18 h -38 l -56,-18 -225,-225 v 243"
         id="path250" />
      <path
         d="m 3404,3784 19,-37 18,-19 38,-19 h 19 l 37,19 19,19 19,37 v 75 l -19,38 -19,19 -37,18 h -19 l -38,-18 -18,-19 -19,-38 v -75 l -19,-37 -19,-19 -37,-19 h -75 l -38,19 -18,19 -19,37 v 75 l 19,38 18,19 38,18 h 75 l 37,-18 19,-19 19,-38"
         id="path252" />
      <path
         d="M 3179,4309 V 4084"
         id="path254" />
      <path
         d="m 3179,4197 h 394 l -57,-38 -37,-37 -19,-38"
         id="path256" />
      <path
         d="m 3535,4459 19,19 19,38 v 93 l -19,38 -19,19 -37,18 h -38 l -56,-18 -225,-225 v 243"
         id="path258" />
      <path
         d="m 3573,5040 v -187 l -188,-19 19,19 19,37 v 94 l -19,38 -19,18 -37,19 h -94 l -38,-19 -18,-18 -19,-38 v -94 l 19,-37 18,-19"
         id="path260" />
      <path
         d="m 3179,5528 h 262"
         id="path262" />
      <path
         d="m 3573,5528 -19,-19 -19,19 19,19 19,-19 h -38"
         id="path264" />
      <path
         d="M 3441,5715 H 3179"
         id="path266" />
      <path
         d="m 3404,5715 19,19 18,38 v 56 l -18,37 -38,19 h -206"
         id="path268" />
      <path
         d="M 3869,9 V 8291"
         id="path270" />
      <path
         d="M 5384,9 H 3638"
         id="path272" />
      <path
         d="M 5384,8291 H 3638"
         id="path274" />
      <path
         d="M 3869,8291 3638,7847"
         id="path276" />
      <path
         d="m 3869,8291 231,-444"
         id="path278" />
      <path
         d="M 3869,9 3638,453"
         id="path280" />
      <path
         d="m 3869,9 231,444"
         id="path282" />
      <text
         x="25072.4"
         y="10497.7"
         textLength="3732.5601"
         font-size="524.934px"
         lengthAdjust="spacingAndGlyphs"
         text-anchor="middle"
         opacity="0"
         id="text284">0.203125 in</text>
      <path
         d="m 23413,10085 h 37 l 38,18 18,19 19,38 19,75 v 93 l -19,75 -19,38 -18,19 -38,18 h -37 l -38,-18 -19,-19 -18,-38 -19,-75 v -93 l 19,-75 18,-38 19,-19 38,-18"
         id="path286" />
      <path
         d="m 23713,10441 18,19 -18,18 -19,-18 19,-19 v 37"
         id="path288" />
      <path
         d="m 23881,10122 19,-19 38,-18 h 93 l 38,18 19,19 18,38 v 37 l -18,56 -225,225 h 243"
         id="path290" />
      <path
         d="m 24350,10085 h 38 l 37,18 19,19 19,38 18,75 v 93 l -18,75 -19,38 -19,19 -37,18 h -38 l -37,-18 -19,-19 -19,-38 -19,-75 v -93 l 19,-75 19,-38 19,-19 37,-18"
         id="path292" />
      <path
         d="m 24613,10085 h 243 l -131,150 h 56 l 38,18 19,19 18,38 v 93 l -18,38 -19,19 -38,18 h -112 l -38,-18 -18,-19"
         id="path294" />
      <path
         d="m 25231,10478 h -225"
         id="path296" />
      <path
         d="m 25119,10478 v -393 l -38,56 -37,37 -38,19"
         id="path298" />
      <path
         d="m 25381,10122 19,-19 37,-18 h 94 l 38,18 18,19 19,38 v 37 l -19,56 -225,225 h 244"
         id="path300" />
      <path
         d="m 25962,10085 h -187 l -19,187 19,-19 37,-18 h 94 l 38,18 18,19 19,38 v 93 l -19,38 -18,19 -38,18 h -94 l -37,-18 -19,-19"
         id="path302" />
      <path
         d="m 26450,10478 v -262"
         id="path304" />
      <path
         d="m 26450,10085 -19,18 19,19 19,-19 -19,-18 v 37"
         id="path306" />
      <path
         d="m 26637,10216 v 262"
         id="path308" />
      <path
         d="m 26637,10253 19,-18 38,-19 h 56 l 37,19 19,37 v 206"
         id="path310" />
      <path
         d="m 24056,9789 h 2031"
         id="path312" />
      <path
         d="m 24056,9150 v 869"
         id="path314" />
      <path
         d="m 26087,9150 v 869"
         id="path316" />
      <path
         d="m 26087,9789 -443,230"
         id="path318" />
      <path
         d="m 26087,9789 -443,-231"
         id="path320" />
      <path
         d="m 24056,9789 444,230"
         id="path322" />
      <path
         d="m 24056,9789 444,-231"
         id="path324" />
      <g
         transform="rotate(90,3357.42,8720.78)"
         id="g328">
        <text
           x="3357.4199"
           y="8917.6299"
           textLength="4107.52"
           font-size="524.934px"
           lengthAdjust="spacingAndGlyphs"
           text-anchor="middle"
           opacity="0"
           id="text326">0.0859375 in</text>
      </g>
      <path
         d="m 3573,6874 v 37 l -19,38 -19,18 -37,19 -75,19 h -94 l -75,-19 -38,-19 -18,-18 -19,-38 v -37 l 19,-38 18,-19 38,-18 75,-19 h 94 l 75,19 37,18 19,19 19,38"
         id="path330" />
      <path
         d="m 3216,7174 -18,18 -19,-18 19,-19 18,19 h -37"
         id="path332" />
      <path
         d="m 3573,7436 v 38 l -19,37 -19,19 -37,19 -75,18 h -94 l -75,-18 -38,-19 -18,-19 -19,-37 v -38 l 19,-37 18,-19 38,-19 75,-19 h 94 l 75,19 37,19 19,19 19,37"
         id="path334" />
      <path
         d="m 3404,7792 19,-37 18,-19 38,-19 h 19 l 37,19 19,19 19,37 v 75 l -19,38 -19,19 -37,18 h -19 l -38,-18 -18,-19 -19,-38 v -75 l -19,-37 -19,-19 -37,-19 h -75 l -38,19 -18,19 -19,37 v 75 l 19,38 18,19 38,18 h 75 l 37,-18 19,-19 19,-38"
         id="path336" />
      <path
         d="m 3573,8298 v -187 l -188,-19 19,19 19,37 v 94 l -19,38 -19,18 -37,19 h -94 l -38,-19 -18,-18 -19,-38 v -94 l 19,-37 18,-19"
         id="path338" />
      <path
         d="m 3179,8505 v 75 l 19,37 18,19 57,37 75,19 h 150 l 37,-19 19,-18 19,-38 v -75 l -19,-37 -19,-19 -37,-19 h -94 l -38,19 -18,19 -19,37 v 75 l 19,38 18,18 38,19"
         id="path340" />
      <path
         d="m 3573,8823 v 244 l -150,-131 v 56 l -19,38 -19,18 -37,19 h -94 l -38,-19 -18,-18 -19,-38 v -112 l 19,-38 18,-19"
         id="path342" />
      <path
         d="m 3573,9198 v 263 l -394,-169"
         id="path344" />
      <path
         d="m 3573,9798 v -187 l -188,-19 19,19 19,37 v 94 l -19,38 -19,18 -37,19 h -94 l -38,-19 -18,-18 -19,-38 v -94 l 19,-37 18,-19"
         id="path346" />
      <path
         d="m 3179,10286 h 262"
         id="path348" />
      <path
         d="m 3573,10286 -19,-19 -19,19 19,18 19,-18 h -38"
         id="path350" />
      <path
         d="M 3441,10473 H 3179"
         id="path352" />
      <path
         d="m 3404,10473 19,19 18,37 v 57 l -18,37 -38,19 h -206"
         id="path354" />
      <path
         d="m 3869,8291 v 859"
         id="path356" />
      <path
         d="M 5384,8291 H 3638"
         id="path358" />
      <path
         d="M 5384,9150 H 3638"
         id="path360" />
      <path
         d="M 3869,9150 3638,8706"
         id="path362" />
      <path
         d="m 3869,9150 231,-444"
         id="path364" />
      <path
         d="m 3869,8291 -231,443"
         id="path366" />
      <path
         d="m 3869,8291 231,443"
         id="path368" />
      <text
         x="32572.4"
         y="10497.7"
         textLength="3732.5601"
         font-size="524.934px"
         lengthAdjust="spacingAndGlyphs"
         text-anchor="middle"
         opacity="0"
         id="text370">1.296875 in</text>
      <path
         d="m 31044,10478 h -225"
         id="path372" />
      <path
         d="m 30931,10478 v -393 l -37,56 -38,37 -37,19"
         id="path374" />
      <path
         d="m 31213,10441 18,19 -18,18 -19,-18 19,-19 v 37"
         id="path376" />
      <path
         d="m 31381,10122 19,-19 38,-18 h 93 l 38,18 19,19 18,38 v 37 l -18,56 -225,225 h 243"
         id="path378" />
      <path
         d="m 31794,10478 h 75 l 37,-18 19,-19 38,-56 18,-75 v -150 l -18,-38 -19,-19 -38,-18 h -75 l -37,18 -19,19 -19,38 v 93 l 19,38 19,19 37,18 h 75 l 38,-18 19,-19 18,-38"
         id="path380" />
      <path
         d="m 32319,10085 h -75 l -38,18 -18,19 -38,56 -19,75 v 150 l 19,38 19,19 37,18 h 75 l 38,-18 19,-19 18,-38 v -93 l -18,-38 -19,-19 -38,-18 h -75 l -37,18 -19,19 -19,38"
         id="path382" />
      <path
         d="m 32581,10253 -37,-18 -19,-19 -19,-38 v -18 l 19,-38 19,-19 37,-18 h 75 l 38,18 18,19 19,38 v 18 l -19,38 -18,19 -38,18 h -75 l -37,19 -19,19 -19,37 v 75 l 19,38 19,19 37,18 h 75 l 38,-18 18,-19 19,-38 v -75 l -19,-37 -18,-19 -38,-19"
         id="path384" />
      <path
         d="m 32862,10085 h 263 l -169,393"
         id="path386" />
      <path
         d="m 33462,10085 h -187 l -19,187 19,-19 37,-18 h 94 l 38,18 18,19 19,38 v 93 l -19,38 -18,19 -38,18 h -94 l -37,-18 -19,-19"
         id="path388" />
      <path
         d="m 33950,10478 v -262"
         id="path390" />
      <path
         d="m 33950,10085 -19,18 19,19 19,-19 -19,-18 v 37"
         id="path392" />
      <path
         d="m 34137,10216 v 262"
         id="path394" />
      <path
         d="m 34137,10253 19,-18 38,-19 h 56 l 37,19 19,37 v 206"
         id="path396" />
      <path
         d="M 26087,9789 H 39056"
         id="path398" />
      <path
         d="m 26087,9150 v 869"
         id="path400" />
      <path
         d="m 39056,9150 v 869"
         id="path402" />
      <path
         d="m 39056,9789 -443,230"
         id="path404" />
      <path
         d="m 39056,9789 -443,-231"
         id="path406" />
      <path
         d="m 26087,9789 444,230"
         id="path408" />
      <path
         d="m 26087,9789 444,-231"
         id="path410" />
      <text
         x="15619.2"
         y="10484.1"
         textLength="2982.6599"
         font-size="524.934px"
         lengthAdjust="spacingAndGlyphs"
         text-anchor="middle"
         opacity="0"
         id="text412">1.6875 in</text>
      <path
         d="m 14466,10465 h -225"
         id="path414" />
      <path
         d="m 14353,10465 v -394 l -37,56 -38,38 -37,19"
         id="path416" />
      <path
         d="m 14634,10427 19,19 -19,19 -18,-19 18,-19 v 38"
         id="path418" />
      <path
         d="m 14991,10071 h -75 l -38,19 -19,19 -37,56 -19,75 v 150 l 19,37 19,19 37,19 h 75 l 38,-19 18,-19 19,-37 v -94 l -19,-37 -18,-19 -38,-19 h -75 l -37,19 -19,19 -19,37"
         id="path420" />
      <path
         d="m 15253,10240 -37,-19 -19,-19 -19,-37 v -19 l 19,-37 19,-19 37,-19 h 75 l 38,19 18,19 19,37 v 19 l -19,37 -18,19 -38,19 h -75 l -37,19 -19,18 -19,38 v 75 l 19,37 19,19 37,19 h 75 l 38,-19 18,-19 19,-37 v -75 l -19,-38 -18,-18 -38,-19"
         id="path422" />
      <path
         d="m 15534,10071 h 263 l -169,394"
         id="path424" />
      <path
         d="m 16134,10071 h -187 l -19,188 19,-19 37,-19 h 94 l 38,19 18,19 19,37 v 94 l -19,37 -18,19 -38,19 h -94 l -37,-19 -19,-19"
         id="path426" />
      <path
         d="m 16622,10465 v -263"
         id="path428" />
      <path
         d="m 16622,10071 -19,19 19,19 18,-19 -18,-19 v 38"
         id="path430" />
      <path
         d="m 16809,10202 v 263"
         id="path432" />
      <path
         d="m 16809,10240 19,-19 37,-19 h 57 l 37,19 19,38 v 206"
         id="path434" />
      <path
         d="M 7181,9775 H 24056"
         id="path436" />
      <path
         d="m 7181,9150 v 856"
         id="path438" />
      <path
         d="m 24056,9150 v 856"
         id="path440" />
      <path
         d="m 24056,9775 -443,231"
         id="path442" />
      <path
         d="m 24056,9775 -443,-231"
         id="path444" />
      <path
         d="m 7181,9775 444,231"
         id="path446" />
      <path
         d="m 7181,9775 444,-231"
         id="path448" />
      <text
         x="6283.2998"
         y="7305.6099"
         textLength="4107.52"
         font-size="524.934px"
         lengthAdjust="spacingAndGlyphs"
         text-anchor="middle"
         opacity="0"
         id="text450">0.1796875 in</text>
      <path
         d="m 4436,6893 h 38 l 37,18 19,19 19,38 18,75 v 93 l -18,75 -19,38 -19,19 -37,18 h -38 l -37,-18 -19,-19 -19,-38 -19,-75 v -93 l 19,-75 19,-38 19,-19 37,-18"
         id="path452" />
      <path
         d="m 4736,7249 19,19 -19,18 -19,-18 19,-19 v 37"
         id="path454" />
      <path
         d="M 5130,7286 H 4905"
         id="path456" />
      <path
         d="m 5017,7286 v -393 l -37,56 -38,37 -37,19"
         id="path458" />
      <path
         d="m 5261,6893 h 263 l -169,393"
         id="path460" />
      <path
         d="m 5692,7286 h 75 l 38,-18 18,-19 38,-56 19,-75 v -150 l -19,-38 -19,-19 -37,-18 h -75 l -38,18 -19,19 -18,38 v 93 l 18,38 19,19 38,18 h 75 l 37,-18 19,-19 19,-38"
         id="path462" />
      <path
         d="m 6217,6893 h -75 l -37,18 -19,19 -38,56 -18,75 v 150 l 18,38 19,19 38,18 h 75 l 37,-18 19,-19 19,-38 v -93 l -19,-38 -19,-19 -37,-18 h -75 l -38,18 -19,19 -18,38"
         id="path464" />
      <path
         d="m 6480,7061 -38,-18 -19,-19 -18,-38 v -18 l 18,-38 19,-19 38,-18 h 75 l 37,18 19,19 19,38 v 18 l -19,38 -19,19 -37,18 h -75 l -38,19 -19,19 -18,37 v 75 l 18,38 19,19 38,18 h 75 l 37,-18 19,-19 19,-38 v -75 l -19,-37 -19,-19 -37,-19"
         id="path466" />
      <path
         d="m 6761,6893 h 262 l -168,393"
         id="path468" />
      <path
         d="m 7361,6893 h -188 l -18,187 18,-19 38,-18 h 94 l 37,18 19,19 19,38 v 93 l -19,38 -19,19 -37,18 h -94 l -38,-18 -18,-19"
         id="path470" />
      <path
         d="M 7848,7286 V 7024"
         id="path472" />
      <path
         d="m 7848,6893 -19,18 19,19 19,-19 -19,-18 v 37"
         id="path474" />
      <path
         d="m 8036,7024 v 262"
         id="path476" />
      <path
         d="m 8036,7061 18,-18 38,-19 h 56 l 38,19 18,37 v 206"
         id="path478" />
      <path
         d="M 7181,7620 H 5384"
         id="path480" />
      <path
         d="M 7181,8291 V 7389"
         id="path482" />
      <path
         d="M 5384,8291 V 7389"
         id="path484" />
      <path
         d="m 5384,7620 444,-231"
         id="path486" />
      <path
         d="m 5384,7620 444,231"
         id="path488" />
      <path
         d="M 7181,7620 6738,7389"
         id="path490" />
      <path
         d="m 7181,7620 -443,231"
         id="path492" />
      <g
         transform="rotate(90,1857.42,20322.3)"
         id="g496">
        <text
           x="1857.42"
           y="20519.199"
           textLength="3357.6101"
           font-size="524.934px"
           lengthAdjust="spacingAndGlyphs"
           text-anchor="middle"
           opacity="0"
           id="text494">0.40625 in</text>
      </g>
      <path
         d="m 2073,18850 v 38 l -19,37 -19,19 -37,19 -75,18 h -94 l -75,-18 -38,-19 -18,-19 -19,-37 v -38 l 19,-37 18,-19 38,-19 75,-19 h 94 l 75,19 37,19 19,19 19,37"
         id="path498" />
      <path
         d="m 1716,19150 -18,19 -19,-19 19,-19 18,19 h -37"
         id="path500" />
      <path
         d="M 1941,19506 H 1679"
         id="path502" />
      <path
         d="m 2091,19413 -281,-94 v 244"
         id="path504" />
      <path
         d="m 2073,19788 v 37 l -19,38 -19,18 -37,19 -75,19 h -94 l -75,-19 -38,-19 -18,-18 -19,-38 v -37 l 19,-38 18,-19 38,-18 75,-19 h 94 l 75,19 37,18 19,19 19,38"
         id="path506" />
      <path
         d="m 2073,20256 v -75 l -19,-37 -19,-19 -56,-38 -75,-18 h -150 l -38,18 -18,19 -19,38 v 75 l 19,37 18,19 38,19 h 94 l 37,-19 19,-19 19,-37 v -75 l -19,-38 -19,-19 -37,-18"
         id="path508" />
      <path
         d="m 2035,20444 19,18 19,38 v 94 l -19,37 -19,19 -37,19 h -38 l -56,-19 -225,-225 v 244"
         id="path510" />
      <path
         d="m 2073,21025 v -188 l -188,-18 19,18 19,38 v 94 l -19,37 -19,19 -37,19 h -94 l -38,-19 -18,-19 -19,-37 v -94 l 19,-38 18,-18"
         id="path512" />
      <path
         d="m 1679,21512 h 262"
         id="path514" />
      <path
         d="m 2073,21512 -19,-18 -19,18 19,19 19,-19 h -38"
         id="path516" />
      <path
         d="M 1941,21700 H 1679"
         id="path518" />
      <path
         d="m 1904,21700 19,19 18,37 v 56 l -18,38 -38,19 h -206"
         id="path520" />
      <path
         d="m 2369,18291 v 4062"
         id="path522" />
      <path
         d="M 7650,18291 H 2138"
         id="path524" />
      <path
         d="M 7650,22353 H 2138"
         id="path526" />
      <path
         d="m 2369,22353 -231,-443"
         id="path528" />
      <path
         d="m 2369,22353 231,-443"
         id="path530" />
      <path
         d="m 2369,18291 -231,443"
         id="path532" />
      <path
         d="m 2369,18291 231,443"
         id="path534" />
      <text
         x="23119.199"
         y="25692.699"
         textLength="3357.6101"
         font-size="524.934px"
         lengthAdjust="spacingAndGlyphs"
         text-anchor="middle"
         opacity="0"
         id="text536">3.09375 in</text>
      <path
         d="m 21535,25280 h 243 l -131,150 h 56 l 38,18 19,19 18,38 v 93 l -18,38 -19,19 -38,18 h -112 l -38,-18 -18,-19"
         id="path538" />
      <path
         d="m 21947,25636 19,19 -19,18 -19,-18 19,-19 v 37"
         id="path540" />
      <path
         d="m 22209,25280 h 38 l 37,18 19,19 19,38 19,75 v 93 l -19,75 -19,38 -19,19 -37,18 h -38 l -37,-18 -19,-19 -19,-38 -18,-75 v -93 l 18,-75 19,-38 19,-19 37,-18"
         id="path542" />
      <path
         d="m 22528,25673 h 75 l 38,-18 18,-19 38,-56 19,-75 v -150 l -19,-38 -19,-19 -37,-18 h -75 l -38,18 -19,19 -18,38 v 93 l 18,38 19,19 38,18 h 75 l 37,-18 19,-19 19,-38"
         id="path544" />
      <path
         d="m 22847,25280 h 244 l -132,150 h 57 l 37,18 19,19 19,38 v 93 l -19,38 -19,19 -37,18 h -113 l -37,-18 -19,-19"
         id="path546" />
      <path
         d="m 23222,25280 h 262 l -168,393"
         id="path548" />
      <path
         d="m 23822,25280 h -188 l -18,187 18,-19 38,-18 h 94 l 37,18 19,19 19,38 v 93 l -19,38 -19,19 -37,18 h -94 l -38,-18 -18,-19"
         id="path550" />
      <path
         d="m 24309,25673 v -262"
         id="path552" />
      <path
         d="m 24309,25280 -19,18 19,19 19,-19 -19,-18 v 37"
         id="path554" />
      <path
         d="m 24497,25411 v 262"
         id="path556" />
      <path
         d="m 24497,25448 18,-18 38,-19 h 56 l 38,19 18,37 v 206"
         id="path558" />
      <path
         d="M 7650,24984 H 38587"
         id="path560" />
      <path
         d="m 7650,22353 v 2861"
         id="path562" />
      <path
         d="m 38587,22353 v 2861"
         id="path564" />
      <path
         d="m 38587,24984 -443,230"
         id="path566" />
      <path
         d="m 38587,24984 -443,-231"
         id="path568" />
      <path
         d="m 7650,24984 443,230"
         id="path570" />
      <path
         d="m 7650,24984 443,-231"
         id="path572" />
      <g
         id="g574" />
    </g>
  </g>
  <g
     style="fill:#000000; fill-opacity:1;stroke:#000000; stroke-opacity:1; stroke-linecap:round; stroke-linejoin:round;"
     transform="translate(0 0) scale(1 1)"
     id="g6" />
  <g
     style="fill:#000000; fill-opacity:0.0;  stroke:#000000; stroke-width:-0.000393701; stroke-opacity:1;  stroke-linecap:round; stroke-linejoin:round;"
     id="g10">
    <g
       id="g8" />
  </g>
  <g
     style="fill:#000000; fill-opacity:0.0;  stroke:#000000; stroke-width:-0.000393701; stroke-opacity:1;  stroke-linecap:round; stroke-linejoin:round;"
     id="g14">
    <g
       id="g12" />
  </g>
  <g
     style="fill:#000000; fill-opacity:0.0;  stroke:#000000; stroke-width:-0.000393701; stroke-opacity:1;  stroke-linecap:round; stroke-linejoin:round;"
     id="g22">
    <g
       id="g16" />
    <g
       id="g18" />
    <g
       id="g20" />
  </g>
  <g
     style="fill:#000000; fill-opacity:0.0;  stroke:#000000; stroke-width:-0.000393701; stroke-opacity:1;  stroke-linecap:round; stroke-linejoin:round;"
     id="g26">
    <g
       id="g24" />
  </g>
  <g
     style="fill:#000000; fill-opacity:0.0;  stroke:#000000; stroke-width:-0.000393701; stroke-opacity:1;  stroke-linecap:round; stroke-linejoin:round;"
     id="g34">
    <g
       id="g28" />
    <g
       id="g30" />
    <g
       id="g32" />
  </g>
  <g
     style="fill:#000000; fill-opacity:0.0;  stroke:#000000; stroke-width:-0.000393701; stroke-opacity:1;  stroke-linecap:round; stroke-linejoin:round;"
     id="g42">
    <g
       id="g36" />
    <g
       id="g38" />
    <g
       id="g40" />
  </g>
  <g
     style="fill:#000000; fill-opacity:0.0;  stroke:#000000; stroke-width:-0.000393701; stroke-opacity:1;  stroke-linecap:round; stroke-linejoin:round;"
     id="g50">
    <g
       id="g44" />
    <g
       id="g46" />
    <g
       id="g48" />
  </g>
  <g
     style="fill:#FFFFFF; fill-opacity:0.0;  stroke:#FFFFFF; stroke-width:-0.000393701; stroke-opacity:1;  stroke-linecap:round; stroke-linejoin:round;"
     id="g52" />
  <g
     style="fill:#000000; fill-opacity:0.0;  stroke:#000000; stroke-width:-0.000393701; stroke-opacity:1;  stroke-linecap:round; stroke-linejoin:round;"
     id="g60">
    <g
       id="g54" />
    <g
       id="g56" />
    <g
       id="g58" />
  </g>
  <g
     style="fill:#FFFFFF; fill-opacity:0.0;  stroke:#FFFFFF; stroke-width:-0.000393701; stroke-opacity:1;  stroke-linecap:round; stroke-linejoin:round;"
     id="g62" />
  <g
     style="fill:#000000; fill-opacity:0.0;  stroke:#000000; stroke-width:-0.000393701; stroke-opacity:1;  stroke-linecap:round; stroke-linejoin:round;"
     id="g70">
    <g
       id="g64" />
    <g
       id="g66" />
    <g
       id="g68" />
  </g>
  <g
     style="fill:#000000; fill-opacity:0.0;  stroke:#000000; stroke-width:-0.000393701; stroke-opacity:1;  stroke-linecap:round; stroke-linejoin:round;"
     id="g78">
    <g
       id="g72" />
    <g
       id="g74" />
    <g
       id="g76" />
  </g>
  <g
     style="fill:#000000; fill-opacity:0.0;  stroke:#000000; stroke-width:-0.000393701; stroke-opacity:1;  stroke-linecap:round; stroke-linejoin:round;"
     id="g82">
    <g
       id="g80" />
  </g>
  <g
     style="fill:#000000; fill-opacity:0.0;  stroke:#000000; stroke-width:-0.000393701; stroke-opacity:1;  stroke-linecap:round; stroke-linejoin:round;"
     id="g90">
    <g
       id="g84" />
    <g
       id="g86" />
    <g
       id="g88" />
  </g>
  <g
     style="fill:#000000; fill-opacity:0.0;  stroke:#000000; stroke-width:-0.000393701; stroke-opacity:1;  stroke-linecap:round; stroke-linejoin:round;"
     id="g94">
    <g
       id="g92" />
  </g>
  <g
     style="fill:#000000; fill-opacity:0.0;  stroke:#000000; stroke-width:-0.000393701; stroke-opacity:1;  stroke-linecap:round; stroke-linejoin:round;"
     id="g98">
    <g
       id="g96" />
  </g>
  <g
     style="fill:#000000; fill-opacity:0.0;  stroke:#000000; stroke-width:-0.000393701; stroke-opacity:1;  stroke-linecap:round; stroke-linejoin:round;"
     id="g100" />
  <g
     style="fill:#C2C2C2; fill-opacity:0.0;  stroke:#C2C2C2; stroke-width:-0.000393701; stroke-opacity:1;  stroke-linecap:round; stroke-linejoin:round;"
     id="g102" />
  <g
     style="fill:#000000; fill-opacity:0.0;  stroke:#000000; stroke-width:59.0551; stroke-opacity:1;  stroke-linecap:round; stroke-linejoin:round;"
     id="g580">
    <g
       id="g578" />
  </g>
  <g
     style="fill:#000000; fill-opacity:0.0;  stroke:#000000; stroke-width:59.0551; stroke-opacity:1;  stroke-linecap:round; stroke-linejoin:round;"
     id="g584">
    <g
       id="g582" />
  </g>
  <g
     style="fill:#000000; fill-opacity:0.0;  stroke:#000000; stroke-width:59.0551; stroke-opacity:1;  stroke-linecap:round; stroke-linejoin:round;"
     id="g588">
    <g
       id="g586" />
  </g>
  <g
     style="fill:#000000; fill-opacity:0.0;  stroke:#000000; stroke-width:59.0551; stroke-opacity:1;  stroke-linecap:round; stroke-linejoin:round;"
     id="g592">
    <g
       id="g590" />
  </g>
  <g
     style="fill:#000000; fill-opacity:0.0;  stroke:#000000; stroke-width:59.0551; stroke-opacity:1;  stroke-linecap:round; stroke-linejoin:round;"
     id="g594" />
  <g
     style="fill:#C2C200; fill-opacity:0.0;  stroke:#C2C200; stroke-width:59.0551; stroke-opacity:1;  stroke-linecap:round; stroke-linejoin:round;"
     id="g596" />
  <g
     inkscape:groupmode="layer"
     id="layer1"
     inkscape:label="Edge.Cuts">
    <g
       style="fill:#C2C200;fill-opacity:0;stroke:#C2C200;stroke-width:19.685;stroke-opacity:1;stroke-linecap:round;stroke-linejoin:round"
       id="g640">
      <path
         d="M5384 8291 L5384 9 "
         id="path598" />
      <path
         d="M40853 8291 L40853 9 "
         id="path600" />
      <path
         d="M5384 18291 L5384 9150 "
         id="path602" />
      <path
         d="M40853 18291 L40853 9150 "
         id="path604" />
      <path
         d="M40853 9150 L39056 9150 "
         id="path606" />
      <path
         d="M7181 8291 L5384 8291 "
         id="path608" />
      <path
         d="M24056 8291 L26087 8291 "
         id="path610" />
      <path
         d="M24056 9150 L26087 9150 "
         id="path612" />
      <path
         d="M7181 9150 L7181 8291 "
         id="path614" />
      <path
         d="M40853 8291 L39056 8291 "
         id="path616" />
      <path
         d="M7181 9150 L5384 9150 "
         id="path618" />
      <path
         d="M39056 9150 L39056 8291 "
         id="path620" />
      <path
         d="M26087 9150 L26087 8291 "
         id="path622" />
      <path
         d="M24056 9150 L24056 8291 "
         id="path624" />
      <path
         d="M38587 22353 L7650 22353 "
         id="path626" />
      <path
         d="M38587 18291 L38587 22353 "
         id="path628" />
      <path
         d="M40853 18291 L38587 18291 "
         id="path630" />
      <path
         d="M5384 9 L40853 9 "
         id="path632" />
      <path
         d="M7650 18291 L5384 18291 "
         id="path634" />
      <path
         d="M7650 22353 L7650 18291 "
         id="path636" />
      <g
         id="g638" />
    </g>
  </g>
</svg>
